<?xml version="1.0" encoding="UTF-8"?>
<svg id="Layer_1" xmlns="http://www.w3.org/2000/svg" viewBox="0 0 1161.812 309.318">
  <g>
    <path d="M389.343,201.493h-36.773l-11.371,52.982h-5.08l32.418-151.205-2.661-12.58h33.386l35.08,163.785h-33.628l-11.371-52.982ZM388.617,197.139l-17.661-82.498-17.661,82.498h35.321Z"/>
    <path d="M568.128,254.475h-35.08l-8.952-56.854c-2.419-14.273-7.5-24.677-18.386-24.677h-1.694v81.53h-32.902V90.69h44.273c32.176,0,46.45,16.451,46.45,37.982,0,26.854-19.596,39.676-41.854,42.096,22.016,2.902,32.902,13.79,36.773,31.208l11.371,52.499ZM504.017,168.591h4.597c9.193,0,17.903-9.436,17.903-36.773,0-20.564-3.629-36.773-16.935-36.773h-5.564v73.546Z"/>
    <path d="M657.155,257.621c-37.741,0-57.337-28.548-57.337-83.466,0-72.336,34.112-86.61,59.756-86.61,12.339,0,22.5,3.387,30.483,10.161l-2.419,2.661c-6.291-5.08-15.483-8.467-23.709-8.467-15.968,0-27.822,11.371-27.822,83.949,0,58.789,7.742,75.966,27.822,75.966,12.821,0,22.982-7.258,29.272-15.483l2.903,1.936c-10.402,13.063-21.289,19.354-38.95,19.354Z"/>
    <path d="M762.878,171.736v82.739h-32.902V90.69h32.902v76.69h33.87v-76.69h32.901v163.785h-32.901v-82.739h-33.87Z"/>
    <path d="M877.064,254.475V90.69h32.902v163.785h-32.902Z"/>
    <path d="M1042.785,90.69l-30.725,163.785h-32.419l-32.418-163.785h33.87l29.031,148.785,27.58-148.785h5.08Z"/>
    <path d="M1161.812,254.475h-81.529V90.69h77.175v4.354h-44.272v74.03h35.079v4.354h-35.079v76.691h48.627v4.354Z"/>
  </g>
  <g>
    <g>
      <path d="M99.789,266.051c1.487.589,2.656,1.051,4.155,1.645-.589,1.554-1.051,3.003-1.682,4.375-.811,1.765-.245,2.715,1.509,3.332,9.471,3.332,19.152,5.71,29.181,6.548,1.463.122,2.922.284,4.386.391,2.926.213,3.434-.207,3.445-3.12.032-8.074.006-16.149.019-24.224.005-3.104,1.88-4.453,4.742-3.127.719.333,1.199,1.908,1.212,2.919.1,7.614.053,15.231.056,22.847.002,4.909.253,5.2,5.159,4.724,10.161-.986,20.177-2.704,29.832-6.166,4.686-1.68,4.8-1.703,2.873-6.275-.833-1.977-.335-2.735,1.544-3.422,2.021-.739,2.36.574,2.908,1.862q1.855,4.36,6.036,2.268c9.902-4.96,18.986-11.118,27.17-18.588,2.552-2.329,2.537-2.343.005-4.893-2.908-2.929-5.815-5.86-8.714-8.798-.118-.119-.145-.328-.34-.798.814-.859,1.719-1.814,2.867-3.025,3.216,3.188,6.258,6.201,9.297,9.217,2.816,2.794,2.82,2.775,5.459-.244,7.406-8.47,13.793-17.615,18.622-27.811,1.576-3.328,1.581-3.4-1.755-4.792-1.004-.419-1.999-.856-2.942-1.261.405-4.082,1.07-4.514,4.528-3.131,3.582,1.433,3.612,1.409,4.867-2.166,3.484-9.922,5.6-20.131,6.465-30.605.045-.548.064-1.099.074-1.65.066-3.344-.218-3.673-3.504-3.681-7.983-.019-15.966-.002-23.948-.007-3.073-.002-4.428-1.901-3.125-4.746.304-.664,1.756-1.119,2.686-1.129,7.89-.086,15.782-.041,23.673-.048,4.147-.004,4.474-.275,4.182-4.351-.797-11.131-3.017-21.968-6.78-32.492-.749-2.094-1.747-2.899-3.85-1.8-.729.381-1.536.609-2.279.967-1.495.72-2.144-.034-2.66-1.338-.525-1.327-.773-2.265.929-3.072,4.856-2.303,4.844-2.394,2.409-7.291-4.809-9.673-10.94-18.435-18.144-26.479-1.607-1.795-2.72-1.902-4.396-.082-3.037,3.298-6.287,6.4-9.66,9.797-1.143-1.062-2.108-1.958-3.341-3.104,2.334-2.375,4.496-4.579,6.664-6.778,1.095-1.111,2.162-2.253,3.311-3.306,1.577-1.444,1.576-2.686-.147-4.049-2.878-2.275-5.678-4.649-8.507-6.985-.61-.504-1.206-1.025-2.329-1.982,5.101-.066,9.234-.719,13.27,2.936,20.481,18.545,33.65,41.157,39.342,68.184.334,1.584,1.28,3.274,2.437,4.41,5.89,5.785,11.925,11.423,17.958,17.06.862.806,1.993,1.324,2.999,1.976.012.499.024.998.037,1.497-.887.51-1.914.871-2.64,1.552-5.954,5.588-11.816,11.274-17.789,16.841-1.754,1.635-2.737,3.455-3.273,5.822-8.645,38.13-30.116,66.557-64.781,84.758-9.691,5.088-20.006,8.672-30.806,10.812-1.914.379-3.959,1.512-5.344,2.897-5.838,5.836-11.456,11.893-17.134,17.887-.689.727-1.258,1.569-2.038,2.555-.95-.853-1.569-1.341-2.11-1.904-5.973-6.221-11.862-12.526-17.953-18.628-1.327-1.33-3.262-2.428-5.092-2.823-22.777-4.91-42.801-14.995-59.74-31.114-17.769-16.91-29.708-37.21-35.122-61.12-1.156-5.105-3.51-8.755-7.234-12.105-5.716-5.143-11.161-10.588-16.938-16.113.822-.87,1.459-1.608,2.161-2.276,6.048-5.755,12.19-11.415,18.104-17.305,1.39-1.384,2.514-3.426,2.926-5.344,5.911-27.521,19.508-50.42,40.839-68.774,1.498-1.289,2.981-1.955,4.948-1.834,1.973.121,3.96.027,6.097.586-3.266,2.73-6.544,5.447-9.796,8.193-2.545,2.149-2.563,2.295-.163,4.666,3.126,3.089,6.303,6.126,9.666,9.388-1.189,1.312-2.074,2.288-3.255,3.59-1.752-1.763-3.329-3.357-4.913-4.943-1.88-1.883-3.775-3.751-5.645-5.644-1.051-1.063-1.962-1.069-3.011.078-8.291,9.071-15.205,19.055-20.336,30.252-.78,1.701-.538,2.779,1.276,3.427.775.277,1.487.745,2.272.98,1.764.527,1.962,1.501,1.289,3.116-.718,1.723-1.704,1.869-3.232,1.152-5.169-2.424-4.543-1.872-6.272,2.999-3.613,10.177-5.425,20.721-6.19,31.474-.177,2.489.868,3.226,3.179,3.208,8.166-.064,16.333.05,24.498-.064,2.413-.034,3.187.776,3.188,3.173.002,2.479-1.166,2.835-3.23,2.817-8.166-.07-16.333.019-24.498-.053-2.363-.021-3.295.8-3.119,3.249.796,11.03,2.743,21.816,6.458,32.256q1.537,4.32,5.723,2.585c1.213-.5,2.412-1.498,3.398.523.938,1.921.644,2.896-1.418,3.744-4.405,1.811-4.375,1.923-2.22,6.263,4.926,9.919,11.116,18.969,18.509,27.225,1.65,1.843,2.76,1.853,4.4.082,3.043-3.286,6.251-6.42,9.592-9.823,1.252,1.179,2.214,2.085,3.479,3.275-2.645,2.677-5.121,5.203-7.62,7.708-4.308,4.317-4.358,4.361.273,8.466,8.016,7.105,16.95,12.815,26.596,17.468,2.347,1.132,3.539.69,4.277-1.724.343-1.121.925-2.168,1.561-3.616Z"/>
      <path d="M105.908,45.622c3.318-1.393,6.301-2.589,5.728-7.02-.12-.929,1.519-3.018,2.003-2.918,1.43.297,2.688,1.424,3.85,2.513,3.666-.255,5.098-1.873,5.563-5.409.152-1.157,1.047-2.773,1.979-3.097.78-.272,2.123,1.01,3.185,1.656.283.172.449.538.691.843,3.834-1.465,6.83-3.214,6.796-8.102-.022-3.166.054-6.515,2.485-9.326.909-1.051.761-3.165.787-4.799.062-3.962,2.071-6.92,4.824-9.962,1.905,2.271,3.917,4.325,4.442,7.339.601,3.455.594,6.934,2.685,10.166,1.171,1.81,1.063,4.625,1.048,6.984-.023,3.404,1.496,5.482,4.508,6.72.669.275,1.29.665,2.07,1.073.337-.502.532-1.085.933-1.33.937-.571,2.108-1.514,2.933-1.306.855.215,1.833,1.523,2.03,2.5.917,4.534,1.085,4.863,5.55,6.577.153-.087.401-.146.441-.271.529-1.657,1.213-3.267,3.342-2.884,2.074.373,2.247,2.082,2.275,3.842.056,3.556,1.365,4.892,5.816,5.998.138-.508.117-1.189.446-1.498.845-.796,1.905-2.041,2.765-1.955.87.087,2.396,1.699,2.269,2.393-.9,4.918,2.356,6.777,5.88,8.28,3.766,1.606,4.318,4.779,4.842,8.505-1.186-.09-2.162-.12-3.126-.244-13.102-1.679-26.202-3.375-39.303-5.058-3.541-.455-3.444-.409-3.656,3.091-.342,5.638.717,11.384-1.332,16.92-.232.626.462,1.902,1.092,2.473,1.212,1.098,2.606,2.063,4.066,2.805,4.237,2.152,6.072,6.143,8.43,10.574-3.464-.776-6.437-1.44-9.408-2.11-.626-.141-1.242-.327-1.871-.455-1.79-.363-3.879-1.425-5.289-.846-1.275.524-1.794,2.858-2.683,4.372-.261.444-.646.815-1.396,1.74-.729-1.581-1.433-2.711-1.776-3.942-.589-2.112-1.621-2.728-3.833-2.134-4.511,1.211-9.098,2.142-13.656,3.175-.152.034-.336-.071-.639-.144,1.903-4.616,4.604-8.476,9.082-10.911,1.123-.611,2.273-1.287,3.155-2.185.598-.609,1.257-1.848,1.02-2.48-2.075-5.536-.991-11.274-1.276-16.913-.17-3.374-.132-3.461-3.451-3.039-13.013,1.654-26.021,3.341-39.032,5.004-1.065.136-2.14.186-3.652.313.653-3.337.585-6.502,4.084-8.034,1.001-.438,1.856-1.22,2.864-1.634,2.724-1.117,3.959-2.968,3.548-5.979-.24-1.759.192-3.438,2.349-3.68,1.98-.222,2.709,1.148,3.033,2.844.048.252.236.478.492.971Z"/>
      <path d="M5.516,180.688c3.347,3.07,7.187,5.221,8.424,10.454,11.46,48.467,40.765,81.309,87.516,98.438,5.48,2.008,11.347,2.956,17.02,4.451.941.248,2.02.567,2.672,1.218,3.112,3.101,6.1,6.327,9.164,9.542-3.284,1.625-25.624-3.522-36.336-7.68-11.803-4.581-22.901-10.343-32.994-17.967-32.773-24.754-51.125-57.652-55.466-98.455Z"/>
      <path d="M282.119,180.081c-4.658,66.626-61.568,120.894-125.237,125.234,2.464-2.595,4.684-4.711,6.637-7.05,2.216-2.654,4.878-3.947,8.296-4.744,41.693-9.723,72.143-33.917,91.571-71.97,5.068-9.927,8.59-20.478,10.637-31.45.899-4.818,4.979-6.545,8.096-10.021Z"/>
      <path d="M6.188,149.622c4.438-33.166,19.063-60.896,44.347-82.892-2.408,2.722-4.867,5.4-7.216,8.171-16.533,19.506-26.879,41.878-30.799,67.151-.611,3.938-3.948,5.208-6.332,7.57Z"/>
      <path d="M236.614,66.279c25.348,21.999,40.158,49.803,44.824,83.112-2.547-2.012-5.684-3.364-6.284-7.155-4.197-26.499-15.351-49.737-32.953-69.922-1.801-2.065-3.722-4.026-5.587-6.035Z"/>
    </g>
    <path d="M146.697,188.509h-24.146l-7.466,34.79h-3.336l21.287-99.287-1.747-8.26h21.922l23.035,107.547h-22.081l-7.467-34.79ZM146.221,185.649l-11.596-54.171-11.597,54.171h23.194Z"/>
  </g>
</svg>